<svg width="213" height="203" viewBox="0 0 213 203" fill="none" xmlns="http://www.w3.org/2000/svg">
<path d="M89.4191 22.0138C89.2302 30.9888 90.5784 43.6143 91.5007 53.1734C93.8017 53.5722 95.2006 53.5763 97.5007 53.1734C97.5007 46.607 98.7448 29.5753 98.967 21.8214C99.003 20.5638 98.4394 19.3192 97.3052 18.7747C95.4815 17.8991 93.7035 17.926 91.4645 18.8553C90.2037 19.3785 89.4478 20.6491 89.4191 22.0138Z" fill="#8F6231"/>
<path d="M174.971 62.5842C166.688 48.0712 139.831 22.9628 92.9343 47.1146C71.7302 40.6199 55.6176 32.4006 28.4412 60.2722C21.0536 67.8488 18.1798 78.5661 19.8899 89.1429C30.6853 155.91 56.9073 201.698 103.57 172.526C154.268 199.062 180.907 133.722 177.302 71.3264C177.128 68.311 176.513 65.287 174.971 62.5842Z" fill="#FF4B4B"/>
<path d="M86.1531 76.7301C80.4356 68.537 66.5996 70.2194 58.6531 76.7301C52.1002 82.099 50.6532 89.3475 53.1531 96.5575C58.6659 105.271 73.1534 106.021 81.6531 96.5575C87.1534 89.3475 89.1534 86.1932 86.1531 76.7301Z" fill="#FF7878"/>
<path d="M143.694 116.881C144.888 112.116 139.268 108.25 133.847 108.007C129.378 107.806 125.992 109.923 124.036 113.3C122.563 118.186 127.454 123.128 134.24 122.497C139.062 121.702 141.025 121.223 143.694 116.881Z" fill="#EA2B2B"/>
<path d="M126.802 129.509C123.326 130.202 122.348 134.293 123.703 137.265C124.82 139.715 127.163 140.936 129.937 141.04C133.57 140.463 135.462 136.462 133.149 133.003C131.276 130.643 130.411 129.725 126.802 129.509Z" fill="#EA2B2B"/>
<path d="M98.1342 36.2613C99.3239 11.8846 121.211 2.42294 144.11 4.4136C142.92 28.7902 124.946 39.1234 98.1342 36.2613Z" fill="#5ABB1A"/>
<path d="M40 52.2721C44.6667 48.4239 55.4667 42.3286 62 42.8417" stroke="#FF7878" stroke-width="4" stroke-linecap="round"/>
</svg>
