<svg width="136" height="221" viewBox="0 0 136 221" fill="none" xmlns="http://www.w3.org/2000/svg">
<path d="M2.00001 218.438H134V208.441C134 171.989 104.45 142.438 67.9976 142.438C31.548 142.438 1.99997 171.983 2.00001 208.433L2.00001 218.438Z" fill="#0AB69F" stroke="#020000" stroke-width="4" stroke-linecap="round"/>
<path d="M48 145.438C48 167.438 85.5 167.938 85.5 145.438C85.5 114.938 47.9991 115.939 48 145.438Z" fill="#FFB09E" stroke="black" stroke-width="4" stroke-linecap="round"/>
<path d="M20.5081 81.877C2.00817 80.377 -3.49219 109.377 24.0081 109.377L20.5081 81.877Z" fill="#FFB09E" stroke="black" stroke-width="4"/>
<path d="M113.008 81.9332C131.507 80.4332 137.008 109.433 109.508 109.433L113.008 81.9332Z" fill="#FFB09E" stroke="black" stroke-width="4"/>
<path d="M22.6162 65.877C2.66737 170.512 131.352 174.556 111.398 65.877H22.6162Z" fill="#FFCEBF" stroke="black" stroke-width="4"/>
<path d="M7.00805 91.8769C-10.4921 -26.6232 143.008 -28.123 126.509 91.8767C111 91.8767 109.095 63.4384 94 63.4385H39C24.4928 63.4385 23.5 91.8769 7.00805 91.8769Z" fill="#25457C"/>
<path d="M39 63.4385C24.4928 63.4385 23.5 91.8769 7.00805 91.8769C-10.4921 -26.6232 143.008 -28.123 126.509 91.8767C111 91.8767 109.095 63.4384 94 63.4385M39 63.4385C52.9371 63.4384 79.9853 63.4385 94 63.4385M39 63.4385H94" stroke="black" stroke-width="4"/>
<path d="M126.508 64.8769C126.508 -16.6231 6.00781 -16.1231 6.00781 64.8769H47.0078C46.2971 60.4094 46.21 56.411 46.619 52.877C49.816 25.2499 83.3241 26 86.1377 52.877C86.509 56.4237 86.3457 60.4254 85.5078 64.8769H126.508Z" fill="#DC4854"/>
<path d="M47.0078 64.8769H85.5078C86.3457 60.4254 86.509 56.4237 86.1377 52.877H46.619C46.21 56.411 46.2971 60.4094 47.0078 64.8769Z" fill="#EFCC65"/>
<path d="M6.00781 64.8769C6.00781 -16.1231 126.508 -16.6231 126.508 64.8769M6.00781 64.8769C15.6723 64.8769 30.4328 64.8769 47.0078 64.8769M6.00781 64.8769H47.0078M126.508 64.8769C114.606 64.8769 100.278 64.8769 85.5078 64.8769M126.508 64.8769H85.5078M47.0078 64.8769H85.5078M47.0078 64.8769C46.2971 60.4094 46.21 56.411 46.619 52.877M85.5078 64.8769C86.3457 60.4254 86.509 56.4237 86.1377 52.877M46.619 52.877C49.816 25.2499 83.3241 26 86.1377 52.877M46.619 52.877H86.1377" stroke="black" stroke-width="4"/>
<path d="M46 88.4385V98.9385" stroke="black" stroke-width="7" stroke-linecap="round"/>
<path d="M51 169.438V187.438" stroke="#FFCEBF" stroke-width="7" stroke-linecap="round"/>
<path d="M87 88.4385V98.9385" stroke="black" stroke-width="7" stroke-linecap="round"/>
<path d="M83 169.438V187.438" stroke="#FFCEBF" stroke-width="7" stroke-linecap="round"/>
<path d="M57 116.438C58 126.938 77.5 127.938 78.9918 116.438" stroke="black" stroke-width="5" stroke-linecap="round"/>
<path d="M86 109.938H96" stroke="#FE8F83" stroke-width="5" stroke-linecap="round"/>
<path d="M38 110.438H48" stroke="#FE8F83" stroke-width="5" stroke-linecap="round"/>
</svg>
