<svg width="76" height="72" viewBox="0 0 76 72" fill="none" xmlns="http://www.w3.org/2000/svg">
<path d="M61.3472 63.1209C63.405 63.1209 65.0731 61.4528 65.0731 59.3951V38.5609H46.6082V40.9796C46.6082 43.1887 44.8173 44.9796 42.6082 44.9796H33.3841C31.1749 44.9796 29.3841 43.1887 29.3841 40.9796V38.5609L10.9269 38.5609V59.3951C10.9269 61.4528 12.595 63.1209 14.6528 63.1209H61.3472Z" fill="#AA572A"/>
<path fill-rule="evenodd" clip-rule="evenodd" d="M3.72582 71.3076C1.66811 71.3076 0 69.6395 0 67.5818V29.0816H10.9269H29.3841V38.5609L10.9269 38.5609V59.3951C10.9269 61.4528 12.595 63.1209 14.6528 63.1209H61.3472C63.405 63.1209 65.0731 61.4528 65.0731 59.3951V38.5609H46.6082V29.0816H65.0731H76V67.5818C76 69.6395 74.3319 71.3076 72.2742 71.3076H3.72582Z" fill="#FFBC00"/>
<path d="M42.6082 44.9796C44.8173 44.9796 46.6082 43.1887 46.6082 40.9796V38.5609V29.0816V29.0816C46.6082 27.3684 45.2193 25.9796 43.5061 25.9796H32.4861C30.7729 25.9796 29.3841 27.3684 29.3841 29.0816V29.0816V38.5609V40.9796C29.3841 43.1887 31.1749 44.9796 33.3841 44.9796H42.6082Z" fill="#FFBC00"/>
<path d="M10.9269 29.0816H29.3841V29.0816C29.3841 27.3684 30.7729 25.9796 32.4861 25.9796H43.5061C45.2193 25.9796 46.6082 27.3684 46.6082 29.0816V29.0816H65.0731V4.26531H10.9269V29.0816Z" fill="#AA572A"/>
<path d="M65.0731 29.0816H76V3.72582C76 1.66811 74.3319 0 72.2742 0H68.7989C66.7412 0 65.0731 1.66811 65.0731 3.72582V4.26531V29.0816Z" fill="#FFBC00"/>
<path d="M10.9269 3.72582C10.9269 1.66811 9.25883 0 7.20112 0H3.72582C1.66811 0 0 1.66811 0 3.72582V29.0816H10.9269V4.26531V3.72582Z" fill="#FFBC00"/>
<g filter="url(#filter0_i_206_367)">
<path d="M36.5411 35.8698C35.6517 34.9695 34.7005 33.8585 35.129 32.6677C36.1053 29.955 39.8932 29.9543 40.8711 32.6654C41.3009 33.857 40.3397 34.9604 39.4582 35.8701V35.8701C39.413 35.9167 39.3966 35.9712 39.3966 36.0361C39.3966 36.9673 39.3966 37.7489 39.3966 38.9265C39.3966 39.6073 39.3123 40.3992 38.6658 40.6124C38.2499 40.7496 37.7363 40.7482 37.3223 40.6081C36.686 40.3929 36.6044 39.6123 36.6044 38.9405C36.6044 37.6772 36.6044 36.9807 36.6044 36.0381C36.6044 35.972 36.5876 35.9169 36.5411 35.8698V35.8698Z" fill="#88411B"/>
</g>
<path d="M4.17578 61.2504V66.2798C4.17578 66.6228 4.4538 66.9008 4.79675 66.9008H8.76919" stroke="#FFBC00" stroke-width="3" stroke-linecap="round"/>
<path d="M4.17578 39.9329V34.9035C4.17578 34.5605 4.4538 34.2825 4.79675 34.2825H8.76919" stroke="#FFBC00" stroke-width="3" stroke-linecap="round"/>
<path d="M72.2412 61.2504V66.2798C72.2412 66.6228 71.9632 66.9008 71.6202 66.9008H67.6478" stroke="#FFBC00" stroke-width="3" stroke-linecap="round"/>
<path d="M72.2412 39.9329V34.9035C72.2412 34.5605 71.9632 34.2825 71.6202 34.2825H67.6478" stroke="#FFBC00" stroke-width="3" stroke-linecap="round"/>
<path fill-rule="evenodd" clip-rule="evenodd" d="M3.72582 71.3076C1.66811 71.3076 0 69.6395 0 67.5818V29.0816H10.5392H29.3841V38.5609L10.5392 38.5609V59.3951C10.5392 61.4528 12.2073 63.1209 14.265 63.1209H61.735C63.7927 63.1209 65.4608 61.4528 65.4608 59.3951V38.5609H46.6082V29.0816H65.4608H76V67.5818C76 69.6395 74.3319 71.3076 72.2742 71.3076H3.72582Z" fill="#FFD300"/>
<path d="M42.6082 44.9796C44.8173 44.9796 46.6082 43.1887 46.6082 40.9796V38.5609V29.0816V29.0816C46.6082 27.3684 45.2193 25.9796 43.5061 25.9796H32.4861C30.7729 25.9796 29.3841 27.3684 29.3841 29.0816V29.0816V38.5609V40.9796C29.3841 43.1887 31.1749 44.9796 33.3841 44.9796H42.6082Z" fill="#FFBC00"/>
<path d="M65.4608 29.0816H76V3.72582C76 1.66811 74.3319 0 72.2742 0H69.1866C67.1289 0 65.4608 1.66811 65.4608 3.72582V4.26531V29.0816Z" fill="#FFD300"/>
<path d="M10.5392 3.72582C10.5392 1.66811 8.87108 0 6.81336 0H3.72582C1.66811 0 0 1.66811 0 3.72582V29.0816H10.5392V4.26531V3.72582Z" fill="#FFD300"/>
<path d="M12.0977 8.9184H63.9017" stroke="#88411B" stroke-width="3" stroke-linecap="square"/>
<path d="M12.0977 53.8979H63.9017" stroke="#88411B" stroke-width="3" stroke-linecap="square"/>
<path d="M12.0977 19.7755H63.9017" stroke="#88411B" stroke-width="3" stroke-linecap="square"/>
<g filter="url(#filter1_i_206_367)">
<path d="M36.5411 35.8698C35.6517 34.9695 34.7005 33.8585 35.129 32.6677C36.1053 29.955 39.8932 29.9543 40.8711 32.6654C41.3009 33.857 40.3397 34.9604 39.4582 35.8701V35.8701C39.413 35.9167 39.3966 35.9712 39.3966 36.0361C39.3966 36.9673 39.3966 37.7489 39.3966 38.9265C39.3966 39.6073 39.3123 40.3992 38.6658 40.6124C38.2499 40.7496 37.7363 40.7482 37.3223 40.6081C36.686 40.3929 36.6044 39.6123 36.6044 38.9405C36.6044 37.6772 36.6044 36.9807 36.6044 36.0381C36.6044 35.972 36.5876 35.9169 36.5411 35.8698V35.8698Z" fill="#88411B"/>
</g>
<path d="M6.2041 61.0994V66.1289C6.2041 66.4718 6.48212 66.7498 6.82507 66.7498H10.7975" stroke="#FFBC00" stroke-width="3" stroke-linecap="round"/>
<path d="M6.2041 40.1606V35.1312C6.2041 34.7883 6.48212 34.5102 6.82507 34.5102H10.7975" stroke="#FFBC00" stroke-width="3" stroke-linecap="round"/>
<path d="M69.6758 61.0994V66.1289C69.6758 66.4718 69.3978 66.7498 69.0548 66.7498H65.0824" stroke="#FFBC00" stroke-width="3" stroke-linecap="round"/>
<path d="M69.6758 40.1606V35.1312C69.6758 34.7883 69.3978 34.5102 69.0548 34.5102H65.0824" stroke="#FFBC00" stroke-width="3" stroke-linecap="round"/>
<defs>
<filter id="filter0_i_206_367" x="35.0234" y="30.0117" width="5.95312" height="10.7026" filterUnits="userSpaceOnUse" color-interpolation-filters="sRGB">
<feFlood flood-opacity="0" result="BackgroundImageFix"/>
<feBlend mode="normal" in="SourceGraphic" in2="BackgroundImageFix" result="shape"/>
<feColorMatrix in="SourceAlpha" type="matrix" values="0 0 0 0 0 0 0 0 0 0 0 0 0 0 0 0 0 0 127 0" result="hardAlpha"/>
<feOffset dy="-0.62097"/>
<feGaussianBlur stdDeviation="0.310485"/>
<feComposite in2="hardAlpha" operator="arithmetic" k2="-1" k3="1"/>
<feColorMatrix type="matrix" values="0 0 0 0 0.533333 0 0 0 0 0.254902 0 0 0 0 0.105882 0 0 0 1 0"/>
<feBlend mode="normal" in2="shape" result="effect1_innerShadow_206_367"/>
</filter>
<filter id="filter1_i_206_367" x="35.0234" y="30.0117" width="5.95312" height="10.7026" filterUnits="userSpaceOnUse" color-interpolation-filters="sRGB">
<feFlood flood-opacity="0" result="BackgroundImageFix"/>
<feBlend mode="normal" in="SourceGraphic" in2="BackgroundImageFix" result="shape"/>
<feColorMatrix in="SourceAlpha" type="matrix" values="0 0 0 0 0 0 0 0 0 0 0 0 0 0 0 0 0 0 127 0" result="hardAlpha"/>
<feOffset dy="-0.62097"/>
<feGaussianBlur stdDeviation="0.310485"/>
<feComposite in2="hardAlpha" operator="arithmetic" k2="-1" k3="1"/>
<feColorMatrix type="matrix" values="0 0 0 0 0.533333 0 0 0 0 0.254902 0 0 0 0 0.105882 0 0 0 1 0"/>
<feBlend mode="normal" in2="shape" result="effect1_innerShadow_206_367"/>
</filter>
</defs>
</svg>
