<svg width="59" height="57" viewBox="0 0 59 57" fill="none" xmlns="http://www.w3.org/2000/svg">
<path d="M49.6286 2.53801C49.6286 1.70959 48.957 1.03801 48.1286 1.03801C47.3002 1.03801 46.6286 1.70959 46.6286 2.53801H49.6286ZM46.6286 15.0921C46.6286 15.9205 47.3002 16.5921 48.1286 16.5921C48.957 16.5921 49.6286 15.9205 49.6286 15.0921H46.6286ZM41.8516 7.31503C41.0231 7.31503 40.3516 7.9866 40.3516 8.81503C40.3516 9.64346 41.0231 10.315 41.8516 10.315V7.31503ZM54.4056 10.315C55.234 10.315 55.9056 9.64346 55.9056 8.81503C55.9056 7.9866 55.234 7.31503 54.4056 7.31503V10.315ZM46.6286 2.53801V8.81503H49.6286V2.53801H46.6286ZM46.6286 8.81503V15.0921H49.6286V8.81503H46.6286ZM48.1286 7.31503H41.8516V10.315H48.1286V7.31503ZM41.8516 10.315H54.4056V7.31503H41.8516V10.315Z" fill="#FFB90A"/>
<path d="M49.0905 2C49.0905 1.17157 48.4189 0.5 47.5905 0.5C46.7621 0.5 46.0905 1.17157 46.0905 2H49.0905ZM46.0905 14.554C46.0905 15.3825 46.7621 16.054 47.5905 16.054C48.4189 16.054 49.0905 15.3825 49.0905 14.554H46.0905ZM41.3135 6.77702C40.485 6.77702 39.8135 7.44859 39.8135 8.27702C39.8135 9.10545 40.485 9.77702 41.3135 9.77702V6.77702ZM53.8675 9.77702C54.6959 9.77702 55.3675 9.10545 55.3675 8.27702C55.3675 7.44859 54.6959 6.77702 53.8675 6.77702V9.77702ZM46.0905 2V8.27702H49.0905V2H46.0905ZM46.0905 8.27702V14.554H49.0905V8.27702H46.0905ZM47.5905 6.77702H41.3135V9.77702H47.5905V6.77702ZM41.3135 9.77702H53.8675V6.77702H41.3135V9.77702Z" fill="#FEE90A"/>
<path d="M53.7402 16.5562C53.7402 15.9211 53.2254 15.4062 52.5902 15.4062C51.9551 15.4062 51.4402 15.9211 51.4402 16.5562H53.7402ZM51.4402 25.2699C51.4402 25.905 51.9551 26.4199 52.5902 26.4199C53.2254 26.4199 53.7402 25.905 53.7402 25.2699H51.4402ZM48.2334 19.763C47.5983 19.763 47.0834 20.2779 47.0834 20.913C47.0834 21.5482 47.5983 22.063 48.2334 22.063V19.763ZM56.9471 22.063C57.5822 22.063 58.0971 21.5482 58.0971 20.913C58.0971 20.2779 57.5822 19.763 56.9471 19.763V22.063ZM51.4402 16.5562V20.913H53.7402V16.5562H51.4402ZM51.4402 20.913V25.2699H53.7402V20.913H51.4402ZM52.5902 19.763H48.2334V22.063H52.5902V19.763ZM48.2334 22.063H56.9471V19.763H48.2334V22.063Z" fill="#FFB90A"/>
<path d="M53.3662 16.1827C53.3662 15.5476 52.8513 15.0327 52.2162 15.0327C51.5811 15.0327 51.0662 15.5476 51.0662 16.1827H53.3662ZM51.0662 24.8964C51.0662 25.5315 51.5811 26.0464 52.2162 26.0464C52.8513 26.0464 53.3662 25.5315 53.3662 24.8964H51.0662ZM47.8594 19.3895C47.2242 19.3895 46.7094 19.9044 46.7094 20.5395C46.7094 21.1746 47.2242 21.6895 47.8594 21.6895V19.3895ZM56.573 21.6895C57.2082 21.6895 57.723 21.1746 57.723 20.5395C57.723 19.9044 57.2082 19.3895 56.573 19.3895V21.6895ZM51.0662 16.1827V20.5395H53.3662V16.1827H51.0662ZM51.0662 20.5395V24.8964H53.3662V20.5395H51.0662ZM52.2162 19.3895H47.8594V21.6895H52.2162V19.3895ZM47.8594 21.6895H56.573V19.3895H47.8594V21.6895Z" fill="#FEE90A"/>
<path d="M23.8239 11.5461C12.0179 11.5461 2.44727 21.1167 2.44727 32.9227C2.44727 44.7287 12.0179 54.2994 23.8239 54.2994C35.6299 54.2994 45.2005 44.7287 45.2005 32.9227C45.2005 21.1167 35.6299 11.5461 23.8239 11.5461Z" fill="#FCCE00" stroke="#FFB90A" stroke-width="3.43755"/>
<path d="M27.8887 8.54586L32.4739 13.1311L6.34342 40.8832L1.7582 36.298L27.8887 8.54586Z" fill="#FEFB96" fill-opacity="0.38"/>
<path d="M41.5889 18.1564L41.472 24.6206L17.2687 50.324L12.2381 49.1004L41.5889 18.1564Z" fill="#FEFB96" fill-opacity="0.38"/>
<path d="M44.512 31.0476V31.7977C44.512 43.3965 35.1093 52.7993 23.5104 52.7993C11.9115 52.7993 2.50879 43.3965 2.50879 31.7977V31.0476C2.50879 19.4487 11.9115 10.046 23.5104 10.046C35.1093 10.046 44.512 19.4487 44.512 31.0476Z" stroke="#FEE90A" stroke-width="3.43755"/>
<path d="M15.1314 25.7078C15.496 25.7078 15.804 25.8649 16.0554 26.1792L22.3538 34.005C22.5172 34.2062 22.5989 34.4325 22.5989 34.6839C22.5989 34.9982 22.4795 35.2685 22.2407 35.4948C22.0018 35.721 21.7378 35.8342 21.4486 35.8342C21.0841 35.8342 20.7761 35.6708 20.5246 35.3439L14.2263 27.5181C14.0628 27.3169 13.9811 27.0906 13.9811 26.8392C13.9811 26.5123 14.0942 26.242 14.3205 26.0283C14.5594 25.8146 14.8297 25.7078 15.1314 25.7078ZM15.1503 35.8153C14.8988 35.8153 14.6474 35.721 14.396 35.5325C14.1571 35.3313 14.0377 35.0925 14.0377 34.8159C14.0377 34.5645 14.132 34.3256 14.3205 34.0993L17.2057 30.573L18.3372 32.4587L16.0554 35.3439C15.8166 35.6582 15.5148 35.8153 15.1503 35.8153ZM21.4298 25.7078C21.7315 25.7078 21.9829 25.8146 22.1841 26.0283C22.3978 26.2295 22.5047 26.4621 22.5047 26.7261C22.5047 26.8518 22.4858 26.9775 22.4481 27.1032C22.4104 27.2289 22.3412 27.3484 22.2407 27.4615L19.3932 30.9313L18.2052 29.2907L20.5246 26.2169C20.7761 25.8775 21.0778 25.7078 21.4298 25.7078ZM29.3368 25.5192C30.2168 25.5192 31.0025 25.7455 31.694 26.198C32.398 26.6381 32.9511 27.2478 33.3534 28.0272C33.7683 28.8067 33.9757 29.7118 33.9757 30.7427C33.9757 31.7736 33.7683 32.685 33.3534 33.477C32.9511 34.2565 32.4043 34.8725 31.7128 35.325C31.034 35.765 30.2671 35.9851 29.4122 35.9851C28.9094 35.9851 28.4379 35.9033 27.9979 35.7399C27.5579 35.5765 27.1682 35.369 26.8288 35.1176C26.5019 34.8662 26.2442 34.6147 26.0556 34.3633C25.8796 34.0993 25.7916 33.8793 25.7916 33.7033L26.3762 33.4582V38.4177C26.3762 38.7445 26.2693 39.0148 26.0556 39.2285C25.8419 39.4548 25.5716 39.568 25.2447 39.568C24.9179 39.568 24.6476 39.4611 24.4339 39.2474C24.2201 39.0337 24.1133 38.7571 24.1133 38.4177V26.8581C24.1133 26.5312 24.2201 26.2609 24.4339 26.0472C24.6476 25.8209 24.9179 25.7078 25.2447 25.7078C25.5716 25.7078 25.8419 25.8209 26.0556 26.0472C26.2693 26.2609 26.3762 26.5312 26.3762 26.8581V27.7821L26.0556 27.6124C26.0556 27.4489 26.1436 27.2541 26.3196 27.0278C26.4956 26.7889 26.7345 26.5563 27.0362 26.33C27.3379 26.0912 27.6836 25.8963 28.0733 25.7455C28.4756 25.5946 28.8968 25.5192 29.3368 25.5192ZM29.0539 27.5935C28.5008 27.5935 28.0168 27.7318 27.6019 28.0084C27.187 28.2849 26.8602 28.6621 26.6213 29.1398C26.395 29.605 26.2819 30.1393 26.2819 30.7427C26.2819 31.3336 26.395 31.8741 26.6213 32.3644C26.8602 32.8421 27.187 33.2193 27.6019 33.4959C28.0168 33.7724 28.5008 33.9107 29.0539 33.9107C29.6071 33.9107 30.0848 33.7724 30.4871 33.4959C30.902 33.2193 31.2225 32.8421 31.4488 32.3644C31.6877 31.8741 31.8071 31.3336 31.8071 30.7427C31.8071 30.1393 31.6877 29.605 31.4488 29.1398C31.2225 28.6621 30.902 28.2849 30.4871 28.0084C30.0848 27.7318 29.6071 27.5935 29.0539 27.5935Z" fill="#FFB90A"/>
<path d="M14.3804 24.9577C14.745 24.9577 15.053 25.1148 15.3044 25.4291L21.6028 33.255C21.7663 33.4561 21.848 33.6824 21.848 33.9338C21.848 34.2481 21.7285 34.5184 21.4897 34.7447C21.2508 34.971 20.9868 35.0841 20.6977 35.0841C20.3331 35.0841 20.0251 34.9207 19.7737 34.5938L13.4753 26.768C13.3118 26.5669 13.2301 26.3406 13.2301 26.0891C13.2301 25.7623 13.3433 25.492 13.5696 25.2783C13.8084 25.0646 14.0787 24.9577 14.3804 24.9577ZM14.3993 35.0653C14.1479 35.0653 13.8964 34.971 13.645 34.7824C13.4061 34.5813 13.2867 34.3424 13.2867 34.0658C13.2867 33.8144 13.381 33.5755 13.5696 33.3492L16.4547 29.8229L17.5862 31.7087L15.3044 34.5938C15.0656 34.9081 14.7639 35.0653 14.3993 35.0653ZM20.6788 24.9577C20.9805 24.9577 21.232 25.0646 21.4331 25.2783C21.6468 25.4794 21.7537 25.712 21.7537 25.976C21.7537 26.1017 21.7348 26.2274 21.6971 26.3531C21.6594 26.4789 21.5903 26.5983 21.4897 26.7114L18.6422 30.1812L17.4542 28.5406L19.7737 25.4668C20.0251 25.1274 20.3268 24.9577 20.6788 24.9577ZM28.5858 24.7691C29.4658 24.7691 30.2516 24.9954 30.943 25.448C31.647 25.888 32.2002 26.4977 32.6024 27.2772C33.0173 28.0566 33.2247 28.9618 33.2247 29.9926C33.2247 31.0235 33.0173 31.9349 32.6024 32.727C32.2002 33.5064 31.6533 34.1224 30.9619 34.575C30.283 35.015 29.5161 35.235 28.6612 35.235C28.1584 35.235 27.6869 35.1533 27.2469 34.9898C26.8069 34.8264 26.4172 34.619 26.0778 34.3675C25.7509 34.1161 25.4932 33.8647 25.3046 33.6133C25.1286 33.3492 25.0406 33.1292 25.0406 32.9532L25.6252 32.7081V37.6676C25.6252 37.9945 25.5183 38.2648 25.3046 38.4785C25.0909 38.7048 24.8206 38.8179 24.4938 38.8179C24.1669 38.8179 23.8966 38.711 23.6829 38.4973C23.4692 38.2836 23.3623 38.007 23.3623 37.6676V26.108C23.3623 25.7811 23.4692 25.5108 23.6829 25.2971C23.8966 25.0708 24.1669 24.9577 24.4938 24.9577C24.8206 24.9577 25.0909 25.0708 25.3046 25.2971C25.5183 25.5108 25.6252 25.7811 25.6252 26.108V27.032L25.3046 26.8623C25.3046 26.6989 25.3926 26.504 25.5686 26.2777C25.7446 26.0389 25.9835 25.8063 26.2852 25.58C26.5869 25.3411 26.9326 25.1463 27.3224 24.9954C27.7247 24.8445 28.1458 24.7691 28.5858 24.7691ZM28.303 26.8434C27.7498 26.8434 27.2658 26.9817 26.8509 27.2583C26.4361 27.5349 26.1092 27.912 25.8703 28.3897C25.6441 28.8549 25.5309 29.3892 25.5309 29.9926C25.5309 30.5835 25.6441 31.1241 25.8703 31.6144C26.1092 32.0921 26.4361 32.4692 26.8509 32.7458C27.2658 33.0224 27.7498 33.1607 28.303 33.1607C28.8561 33.1607 29.3338 33.0224 29.7361 32.7458C30.151 32.4692 30.4716 32.0921 30.6978 31.6144C30.9367 31.1241 31.0561 30.5835 31.0561 29.9926C31.0561 29.3892 30.9367 28.8549 30.6978 28.3897C30.4716 27.912 30.151 27.5349 29.7361 27.2583C29.3338 26.9817 28.8561 26.8434 28.303 26.8434Z" fill="#FEFB96"/>
</svg>
