<svg width="26" height="22" viewBox="0 0 26 22" fill="none" xmlns="http://www.w3.org/2000/svg">
<path d="M10.4153 10.452C11.1771 6.21617 20.4202 4.30481 20.4202 4.30481C20.4202 4.30481 24.0008 12.9978 20.3153 15.9506C15.2985 19.8685 9.44907 15.8242 10.4153 10.452Z" fill="#EF5261"/>
<path d="M12.6214 12.0311C13.0249 9.80765 17.8638 8.79413 17.8638 8.79413C17.8638 8.79413 19.7275 13.3513 17.7956 14.9049C15.1659 16.9664 12.1096 14.8511 12.6214 12.0311Z" fill="#FF9600"/>
<path d="M12.6214 12.0311C13.0249 9.80765 17.8638 8.79413 17.8638 8.79413C17.8638 8.79413 19.7275 13.3513 17.7956 14.9049C15.1659 16.9664 12.1096 14.8511 12.6214 12.0311Z" fill="#FFC800"/>
<path d="M13.5495 13.1388C13.8026 11.8623 16.5042 11.2201 16.5042 11.2201C16.5042 11.2201 17.4805 13.8015 16.387 14.7148C14.8992 15.9275 13.2286 14.7577 13.5495 13.1388Z" fill="#FF9600"/>
<path d="M13.5495 13.1388C13.8026 11.8623 16.5042 11.2201 16.5042 11.2201C16.5042 11.2201 17.4805 13.8015 16.387 14.7148C14.8992 15.9275 13.2286 14.7577 13.5495 13.1388Z" fill="#EEEFEE"/>
<path d="M8.0697 15.8037C5.13549 12.7214 8.03102 4.36632 8.03102 4.36632C8.03102 4.36632 16.4919 6.66665 17.0417 11.2839C17.7111 17.5093 11.7911 19.713 8.0697 15.8037Z" fill="#EF5261"/>
<path d="M10.9967 15.6211C9.08803 14.4589 9.39622 9.836 9.39622 9.836C9.39622 9.836 13.9893 9.8524 14.9053 12.1153C16.1041 15.1763 13.4174 17.0953 10.9967 15.6211Z" fill="#FF9600"/>
<path d="M10.9967 15.6211C9.08803 14.4589 9.39622 9.836 9.39622 9.836C9.39622 9.836 13.9893 9.8524 14.9053 12.1153C16.1041 15.1763 13.4174 17.0953 10.9967 15.6211Z" fill="#FFC800"/>
<path d="M12.2339 15.2081C11.1436 14.5221 11.2465 11.9134 11.2465 11.9134C11.2465 11.9134 13.8282 11.9924 14.3774 13.2856C15.0976 15.0342 13.6168 16.0783 12.2339 15.2081Z" fill="#FF9600"/>
<path d="M12.2339 15.2081C11.1436 14.5221 11.2465 11.9134 11.2465 11.9134C11.2465 11.9134 13.8282 11.9924 14.3774 13.2856C15.0976 15.0342 13.6168 16.0783 12.2339 15.2081Z" fill="#EEEFEE"/>
<path d="M7.09947 13.8695C5.31375 8.63983 14.4975 0.731571 14.4975 0.731571C14.4975 0.731571 23.9365 8.25718 21.6405 13.8695C18.4518 21.3951 9.36428 20.5022 7.09947 13.8695Z" fill="#EF5261"/>
<path d="M10.5608 14.8222C9.62752 12.0748 14.4274 7.92024 14.4274 7.92024C14.4274 7.92024 19.3606 11.8738 18.1606 14.8222C16.494 18.7758 11.7445 18.3067 10.5608 14.8222Z" fill="#FF9600"/>
<path d="M10.5608 14.8222C9.62752 12.0748 14.4274 7.92024 14.4274 7.92024C14.4274 7.92024 19.3606 11.8738 18.1606 14.8222C16.494 18.7758 11.7445 18.3067 10.5608 14.8222Z" fill="#FFC800"/>
<path d="M12.2926 15.3597C11.7808 13.7691 14.4129 11.3638 14.4129 11.3638C14.4129 11.3638 17.1183 13.6527 16.4602 15.3597C15.5463 17.6486 12.9417 17.377 12.2926 15.3597Z" fill="#FF9600"/>
<path d="M12.2926 15.3597C11.7808 13.7691 14.4129 11.3638 14.4129 11.3638C14.4129 11.3638 17.1183 13.6527 16.4602 15.3597C15.5463 17.6486 12.9417 17.377 12.2926 15.3597Z" fill="#EEEFEE"/>
</svg>
