<svg width="125" height="137" viewBox="0 0 125 137" fill="none" xmlns="http://www.w3.org/2000/svg">
<g filter="url(#filter0_i_194_70)">
<path d="M49.9527 69.3351C53.6092 57.3841 80.9199 55.0583 80.9199 55.0583C80.9199 55.0583 88.2482 81.3581 76.6036 88.6021C60.7878 98.17 45.3153 84.4926 49.9527 69.3351Z" fill="#EF5261"/>
<path d="M55.7717 74.6489C57.7015 68.3769 72.0036 67.1221 72.0036 67.1221C72.0036 67.1221 75.8067 80.9048 69.7006 84.7187C61.4076 89.7566 53.3242 82.6037 55.7717 74.6489Z" fill="#FF9600"/>
<path d="M55.7717 74.6489C57.7015 68.3769 72.0036 67.1221 72.0036 67.1221C72.0036 67.1221 75.8067 80.9048 69.7006 84.7187C61.4076 89.7566 53.3242 82.6037 55.7717 74.6489Z" fill="#FFC800"/>
<path d="M58.0637 78.1625C59.2332 74.5691 67.2445 73.6483 67.2445 73.6483C67.2445 73.6483 69.17 81.428 65.7021 83.6846C60.9943 86.6688 56.5804 82.72 58.0637 78.1625Z" fill="#FF9600"/>
<path d="M58.0637 78.1625C59.2332 74.5691 67.2445 73.6483 67.2445 73.6483C67.2445 73.6483 69.17 81.428 65.7021 83.6846C60.9943 86.6688 56.5804 82.72 58.0637 78.1625Z" fill="#EEEFEE"/>
<path d="M39.453 81.6209C34.2674 66.4342 60.9367 43.469 60.9367 43.469C60.9367 43.469 88.347 65.323 81.6794 81.6209C72.4196 103.475 46.03 100.882 39.453 81.6209Z" fill="#EF5261"/>
<path d="M49.5049 82.7731C46.7946 74.7949 60.7331 62.7302 60.7331 62.7302C60.7331 62.7302 75.0589 74.2111 71.5742 82.7731C66.7346 94.2541 52.9422 92.8919 49.5049 82.7731Z" fill="#FF9600"/>
<path d="M49.5049 82.7731C46.7946 74.7949 60.7331 62.7302 60.7331 62.7302C60.7331 62.7302 75.0589 74.2111 71.5742 82.7731C66.7346 94.2541 52.9422 92.8919 49.5049 82.7731Z" fill="#FFC800"/>
<path d="M54.5325 84.7054C53.0463 80.0864 60.69 73.1016 60.69 73.1016C60.69 73.1016 68.5461 79.7484 66.635 84.7054C63.9811 91.3523 56.4175 90.5636 54.5325 84.7054Z" fill="#FF9600"/>
<path d="M54.5325 84.7054C53.0463 80.0864 60.69 73.1016 60.69 73.1016C60.69 73.1016 68.5461 79.7484 66.635 84.7054C63.9811 91.3523 56.4175 90.5636 54.5325 84.7054Z" fill="#EEEFEE"/>
</g>
<path d="M61.7231 23.9193V19.7724M61.7231 2V19.7724M61.7231 19.7724L70.0169 13.8483M61.7231 19.7724L52.8369 13.8483M67.0549 6.73932L62.8325 9.55421C62.1607 10.0021 61.2855 10.0021 60.6137 9.55421L56.3914 6.73932" stroke="#1CB0F6" stroke-width="4" stroke-linecap="round"/>
<path d="M101.252 89.9654L104.807 92.1012M120.041 101.255L104.807 92.1012M104.807 92.1012L114.156 88.0432M104.807 92.1012L105.308 102.769M118.724 94.2435L114.137 96.413C113.407 96.7582 112.956 97.5084 112.994 98.3149L113.232 103.384" stroke="#1CB0F6" stroke-width="4" stroke-linecap="round"/>
<path d="M61.7231 113.019V117.165M61.7231 134.938V117.165M61.7231 117.165L70.0169 123.09M61.7231 117.165L52.8369 123.09M67.0549 130.199L62.8325 127.384C62.1607 126.936 61.2855 126.936 60.6137 127.384L56.3914 130.199" stroke="#1CB0F6" stroke-width="4" stroke-linecap="round"/>
<path d="M23.385 90.2453L19.8239 92.3704M4.56246 101.478L19.8239 92.3704M19.8239 92.3704L10.4866 88.2842M19.8239 92.3704L19.2905 103.037M5.89994 94.4708L10.4809 96.6541C11.2097 97.0014 11.6582 97.753 11.6179 98.5594L11.3644 103.628" stroke="#1CB0F6" stroke-width="4" stroke-linecap="round"/>
<path d="M60.7065 25.1252L24.4014 47.0235V88.5481C24.4014 89.249 24.7682 89.8987 25.3684 90.2607L60.7065 111.576C61.3334 111.954 62.1168 111.959 62.7488 111.59L99.2399 90.2565C99.8534 89.8979 100.23 89.2406 100.23 88.5299V47.0235L62.7488 25.1112C62.1168 24.7417 61.3334 24.7471 60.7065 25.1252Z" fill="#64CCFD" fill-opacity="0.55"/>
<path d="M24.4014 47.0235L60.7065 25.1252C61.3334 24.7471 62.1168 24.7417 62.7488 25.1112L100.23 47.0235M24.4014 47.0235V88.5481C24.4014 89.249 24.7682 89.8987 25.3684 90.2607L60.7065 111.576C61.3334 111.954 62.1168 111.959 62.7488 111.59L99.2399 90.2565C99.8534 89.8979 100.23 89.2406 100.23 88.5299V47.0235M24.4014 47.0235L61.7235 68.3505M100.23 47.0235L82.458 57.0946M61.7235 68.3505L71.2021 63.0187M61.7235 68.3505V97.9712" stroke="#1CB0F6" stroke-width="4" stroke-linecap="round"/>
<path d="M61.7237 33.398L50.4678 39.9146" stroke="white" stroke-width="4" stroke-linecap="round"/>
<path d="M101.252 46.9725L104.807 44.8367M120.041 35.6832L104.807 44.8367M104.807 44.8367L114.156 48.8947M104.807 44.8367L105.308 34.1686M118.724 42.6943L114.137 40.5249C113.407 40.1797 112.956 39.4295 112.994 38.623L113.232 33.554" stroke="#1CB0F6" stroke-width="4" stroke-linecap="round"/>
<path d="M23.385 46.4556L19.8239 44.3305M4.56246 35.223L19.8239 44.3305M19.8239 44.3305L10.4866 48.4167M19.8239 44.3305L19.2905 33.664M5.89994 42.2302L10.4809 40.0469C11.2097 39.6995 11.6582 38.9479 11.6179 38.1415L11.3644 33.0733" stroke="#1CB0F6" stroke-width="4" stroke-linecap="round"/>
<path d="M64.293 69.7148L71.4019 65.5679L97.911 77.8291L97.911 84.627L64.293 69.7148Z" fill="#CBECFB" fill-opacity="0.74"/>
<defs>
<filter id="filter0_i_194_70" x="38.7842" y="43.469" width="44.4111" height="57.5854" filterUnits="userSpaceOnUse" color-interpolation-filters="sRGB">
<feFlood flood-opacity="0" result="BackgroundImageFix"/>
<feBlend mode="normal" in="SourceGraphic" in2="BackgroundImageFix" result="shape"/>
<feColorMatrix in="SourceAlpha" type="matrix" values="0 0 0 0 0 0 0 0 0 0 0 0 0 0 0 0 0 0 127 0" result="hardAlpha"/>
<feOffset dy="4"/>
<feGaussianBlur stdDeviation="57.1"/>
<feComposite in2="hardAlpha" operator="arithmetic" k2="-1" k3="1"/>
<feColorMatrix type="matrix" values="0 0 0 0 0.666667 0 0 0 0 0.890196 0 0 0 0 0.996078 0 0 0 0.7 0"/>
<feBlend mode="normal" in2="shape" result="effect1_innerShadow_194_70"/>
</filter>
</defs>
</svg>
