<svg width="102" height="83" viewBox="0 0 102 83" fill="none" xmlns="http://www.w3.org/2000/svg">
<path fill-rule="evenodd" clip-rule="evenodd" d="M15.6613 46.815L47.404 19.9902C50.6175 17.2746 55.3152 17.2524 58.5542 19.9376L90.9747 46.815V74.3208C90.9747 79.118 87.0859 83.0069 82.2887 83.0069H72.9221C68.1249 83.0069 64.236 79.118 64.236 74.3208V60.2734C64.236 55.4762 60.3472 51.5873 55.55 51.5873H50.4393C45.6422 51.5873 41.7533 55.4762 41.7533 60.2734V74.3208C41.7533 79.118 37.8644 83.0069 33.0673 83.0069H24.3473C19.5502 83.0069 15.6613 79.118 15.6613 74.3208L15.6613 46.815Z" fill="#512A59"/>
<path d="M58.5542 19.9376C55.3152 17.2524 50.6175 17.2746 47.404 19.9902L15.6613 46.815H11.1091C8.83659 46.815 6.9944 44.9728 6.9944 42.7004C6.9944 41.5249 7.49715 40.4055 8.37581 39.6247L47.232 5.09461C50.5036 2.18723 55.4273 2.1682 58.7214 5.05021L98.2408 39.6268C99.131 40.4056 99.6416 41.5308 99.6416 42.7136C99.6416 44.9787 97.8053 46.815 95.5401 46.815H90.9747L58.5542 19.9376Z" fill="#7F4A66"/>
<g filter="url(#filter0_d_53_1401)">
<path d="M94.0134 39.9657L56.6752 5.84631C54.9443 4.26463 52.2992 4.24287 50.5425 5.79588L11.3126 40.4774C8.48274 42.9792 10.8104 47.6105 14.5065 46.8324C15.0964 46.7082 15.6468 46.4409 16.1092 46.0541L47.233 20.0117C50.5012 17.2771 55.2523 17.2535 58.5475 19.9555L89.42 45.271C90.446 46.1123 91.8587 46.3032 93.0712 45.7643C95.3839 44.7364 95.8817 41.673 94.0134 39.9657Z" fill="#7E4A66"/>
</g>
<path d="M73.3789 5.5069V17.8996L84.3789 27.5069V5.5069C84.3789 4.40233 83.4835 3.5069 82.3789 3.5069H75.3789C74.2743 3.5069 73.3789 4.40233 73.3789 5.5069Z" fill="#512A59"/>
<defs>
<filter id="filter0_d_53_1401" x="3.93844" y="4.64542" width="97.334" height="54.5065" filterUnits="userSpaceOnUse" color-interpolation-filters="sRGB">
<feFlood flood-opacity="0" result="BackgroundImageFix"/>
<feColorMatrix in="SourceAlpha" type="matrix" values="0 0 0 0 0 0 0 0 0 0 0 0 0 0 0 0 0 0 127 0" result="hardAlpha"/>
<feOffset dy="6.11624"/>
<feGaussianBlur stdDeviation="3.05812"/>
<feComposite in2="hardAlpha" operator="out"/>
<feColorMatrix type="matrix" values="0 0 0 0 0 0 0 0 0 0 0 0 0 0 0 0 0 0 0.25 0"/>
<feBlend mode="normal" in2="BackgroundImageFix" result="effect1_dropShadow_53_1401"/>
<feBlend mode="normal" in="SourceGraphic" in2="effect1_dropShadow_53_1401" result="shape"/>
</filter>
</defs>
</svg>
