<svg width="104" height="90" viewBox="0 0 104 90" fill="none" xmlns="http://www.w3.org/2000/svg">
<rect x="0.879395" y="0.677277" width="103" height="88.8386" rx="30" fill="#FBE5D8"/>
<path d="M22.6313 45.0966C22.6313 49.3302 26.0634 52.7623 30.2971 52.7623C34.5308 52.7623 37.9628 49.3302 37.9628 45.0966C37.9628 40.8629 34.5308 37.4308 30.2971 37.4308C26.0634 37.4308 22.6313 40.8629 22.6313 45.0966Z" fill="#512A59"/>
<path d="M44.7134 45.0966C44.7134 49.3302 48.1454 52.7623 52.3791 52.7623C56.6128 52.7623 60.0449 49.3302 60.0449 45.0966C60.0449 40.8629 56.6128 37.4308 52.3791 37.4308C48.1454 37.4308 44.7134 40.8629 44.7134 45.0966Z" fill="#512A59"/>
<path d="M66.7959 45.0966C66.7959 49.3302 70.228 52.7623 74.4616 52.7623C78.6953 52.7623 82.1274 49.3302 82.1274 45.0966C82.1274 40.8629 78.6953 37.4308 74.4616 37.4308C70.228 37.4308 66.7959 40.8629 66.7959 45.0966Z" fill="#512A59"/>
</svg>
