<svg width="38" height="44" viewBox="0 0 38 44" fill="none" xmlns="http://www.w3.org/2000/svg">
<path d="M8.80783 17.0617L2.48382 22.4059C2.09337 22.7359 2.3267 23.3735 2.8379 23.3735H35.1581C35.6832 23.3735 35.9083 22.7068 35.4906 22.3886L29.5609 17.8707C29.2966 17.6694 29.0033 17.5091 28.691 17.3956L28.654 17.3821C28.115 17.1861 27.6366 16.8527 27.2662 16.4149L25.5746 14.4159C25.3181 14.1127 24.941 13.9378 24.5438 13.9378C24.1715 13.9378 23.8157 13.7841 23.5605 13.5129L23.2631 13.1969C22.5327 12.4209 21.3722 12.2321 20.4335 12.7366L13.3509 16.5436C12.7147 16.8855 11.9598 16.9281 11.2892 16.6598C10.4514 16.3247 9.49705 16.4793 8.80783 17.0617Z" fill="#FEE90A" stroke="#FEE90A" stroke-width="1.28"/>
<path d="M32.7437 11.5012L35.5774 9.00083M22.7423 6.66718V3M4.40646 14.835L2.90625 13.6681M13.7411 11.5012L11.4074 9.00083" stroke="#FEE90A" stroke-width="4.53537" stroke-linecap="round"/>
<path d="M30.5912 39.4627C32.409 39.4627 33.8826 37.989 33.8826 36.1712V30.4151C33.8826 28.5973 32.409 27.1236 30.5912 27.1236H21.7878V27.1236C21.7878 28.4387 20.7217 29.5048 19.4066 29.5048H17.8214C16.5063 29.5048 15.4402 28.4387 15.4402 27.1236V27.1236H6.97991C5.16211 27.1236 3.68849 28.5973 3.68849 30.4151V36.1712C3.68849 37.989 5.16211 39.4627 6.97991 39.4627H30.5912Z" fill="#AA572A"/>
<path fill-rule="evenodd" clip-rule="evenodd" d="M3.29143 43.5757C1.47362 43.5757 0 42.102 0 40.2842V25.6526C0 23.8348 1.47362 22.3612 3.29143 22.3612H15.4402V27.1236H6.97991C5.16211 27.1236 3.68849 28.5973 3.68849 30.4151V36.1712C3.68849 37.989 5.16211 39.4627 6.97991 39.4627H30.5912C32.409 39.4627 33.8826 37.989 33.8826 36.1712V30.4151C33.8826 28.5973 32.409 27.1236 30.5912 27.1236H21.7878V22.3612H34.7086C36.5264 22.3612 38 23.8348 38 25.6526V40.2842C38 42.102 36.5264 43.5757 34.7086 43.5757H3.29143Z" fill="#AA572A"/>
<path d="M19.4066 29.5048C20.7217 29.5048 21.7878 28.4387 21.7878 27.1236V27.1236V22.3612H15.4402V27.1236V27.1236C15.4402 28.4387 16.5063 29.5048 17.8214 29.5048H19.4066Z" fill="#AA572A"/>
<g filter="url(#filter0_i_193_152)">
<path d="M18.4632 29.2806C18.0809 28.8545 17.673 28.3508 17.8357 27.802C18.238 26.4448 19.9505 26.4445 20.3535 27.8008C20.5167 28.3501 20.1041 28.8506 19.7256 29.2807V29.2807C19.7067 29.3022 19.6996 29.3265 19.6996 29.3551C19.6996 29.8026 19.6996 30.177 19.6996 30.7441C19.6996 31.0637 19.6705 31.4431 19.3676 31.5453C19.1952 31.6036 18.9871 31.6029 18.8156 31.5432C18.5179 31.4396 18.4899 31.066 18.4899 30.7508C18.4899 30.1421 18.4899 29.8091 18.4899 29.356C18.4899 29.3269 18.4827 29.3022 18.4632 29.2806V29.2806Z" fill="#88411B"/>
</g>
<path d="M3.1582 38.1279V40.4181C3.1582 40.7211 3.40381 40.9667 3.70677 40.9667H5.81956" stroke="#FEE90A" stroke-width="1.87733" stroke-linecap="round"/>
<path d="M3.1582 27.543V25.2528C3.1582 24.9499 3.40381 24.7042 3.70677 24.7042H5.81956" stroke="#FEE90A" stroke-width="1.87733" stroke-linecap="round"/>
<path d="M34.9434 38.1279V40.4181C34.9434 40.7211 34.6978 40.9667 34.3948 40.9667H32.282" stroke="#FEE90A" stroke-width="1.87733" stroke-linecap="round"/>
<path d="M34.9434 27.543V25.2528C34.9434 24.9499 34.6978 24.7042 34.3948 24.7042H32.282" stroke="#FEE90A" stroke-width="1.87733" stroke-linecap="round"/>
<defs>
<filter id="filter0_i_193_152" x="14.4033" y="24.1556" width="9.38184" height="9.44896" filterUnits="userSpaceOnUse" color-interpolation-filters="sRGB">
<feFlood flood-opacity="0" result="BackgroundImageFix"/>
<feBlend mode="normal" in="SourceGraphic" in2="BackgroundImageFix" result="shape"/>
<feColorMatrix in="SourceAlpha" type="matrix" values="0 0 0 0 0 0 0 0 0 0 0 0 0 0 0 0 0 0 127 0" result="hardAlpha"/>
<feOffset dy="-0.548571"/>
<feGaussianBlur stdDeviation="0.274286"/>
<feComposite in2="hardAlpha" operator="arithmetic" k2="-1" k3="1"/>
<feColorMatrix type="matrix" values="0 0 0 0 0.533333 0 0 0 0 0.254902 0 0 0 0 0.105882 0 0 0 1 0"/>
<feBlend mode="normal" in2="shape" result="effect1_innerShadow_193_152"/>
</filter>
</defs>
</svg>
