<svg width="87" height="74" viewBox="0 0 87 74" fill="none" xmlns="http://www.w3.org/2000/svg">
<g filter="url(#filter0_d_53_1473)">
<path d="M31.0137 40.3042C31.0137 47.4009 36.7667 53.1538 43.8633 53.1538C50.96 53.1538 56.713 47.4009 56.713 40.3042V33.8182H31.0137V40.3042Z" fill="#7E4A66"/>
<path d="M31.0137 33.8182V40.3042C31.0137 47.4009 36.7667 53.1538 43.8633 53.1538V53.1538C50.96 53.1538 56.713 47.4009 56.713 40.3042V33.8182M31.0137 33.8182V14.8497C31.0137 7.75299 36.7667 2 43.8633 2V2C50.96 2 56.713 7.75299 56.713 14.8496V33.8182M31.0137 33.8182H56.713" stroke="#7E4A66" stroke-width="2.44755"/>
</g>
<path d="M55.4886 26.965H56.4677V25.007H55.4886V26.965ZM49.125 25.007C48.5843 25.007 48.146 25.4453 48.146 25.986C48.146 26.5267 48.5843 26.965 49.125 26.965V25.007ZM55.4886 25.007H49.125V26.965H55.4886V25.007Z" fill="#7E4A66"/>
<path d="M55.4886 22.0699H56.4677V20.1119H55.4886V22.0699ZM49.125 20.1119C48.5843 20.1119 48.146 20.5502 48.146 21.0909C48.146 21.6316 48.5843 22.0699 49.125 22.0699V20.1119ZM55.4886 20.1119H49.125V22.0699H55.4886V20.1119Z" fill="#7E4A66"/>
<path d="M55.4886 17.1748H56.4677V15.2168H55.4886V17.1748ZM49.125 15.2168C48.5843 15.2168 48.146 15.6551 48.146 16.1958C48.146 16.7365 48.5843 17.1748 49.125 17.1748V15.2168ZM55.4886 15.2168H49.125V17.1748H55.4886V15.2168Z" fill="#7E4A66"/>
<path d="M32.2369 15.2168H31.2579V17.1748H32.2369V15.2168ZM38.6006 17.1748C39.1413 17.1748 39.5796 16.7365 39.5796 16.1958C39.5796 15.6551 39.1413 15.2168 38.6006 15.2168V17.1748ZM32.2369 17.1748H38.6006V15.2168H32.2369V17.1748Z" fill="#7E4A66"/>
<path d="M32.2369 20.1119H31.2579V22.0699H32.2369V20.1119ZM38.6006 22.0699C39.1413 22.0699 39.5796 21.6316 39.5796 21.0909C39.5796 20.5502 39.1413 20.1119 38.6006 20.1119V22.0699ZM32.2369 22.0699H38.6006V20.1119H32.2369V22.0699Z" fill="#7E4A66"/>
<path d="M32.2369 25.007H31.2579V26.965H32.2369V25.007ZM38.6006 26.965C39.1413 26.965 39.5796 26.5267 39.5796 25.986C39.5796 25.4453 39.1413 25.007 38.6006 25.007V26.965ZM32.2369 26.965H38.6006V25.007H32.2369V26.965Z" fill="#7E4A66"/>
<path d="M36.2612 71.0868L43.9846 66.6154L51.5097 71.0897C51.9373 71.344 51.757 72 51.2595 72H36.5064C36.0059 72 35.828 71.3376 36.2612 71.0868Z" fill="#512A59"/>
<path d="M23.6699 41.1608C23.6699 54.5952 33.9116 61.3915 43.9846 61.2604M63.3203 41.1608C63.3203 54.5211 53.7314 61.1337 43.9846 61.2604M43.9846 61.2604V66.6154M43.9846 66.6154L36.2612 71.0868C35.828 71.3376 36.0059 72 36.5064 72H51.2595C51.757 72 51.9373 71.344 51.5097 71.0897L43.9846 66.6154Z" stroke="#512A59" stroke-width="3" stroke-linecap="round"/>
<path d="M43.7412 62.2098V67.1049" stroke="#512A59" stroke-width="3.91608" stroke-linecap="square"/>
<path d="M69.1953 15.4615V38.2238" stroke="#512A59" stroke-width="3" stroke-linecap="round"/>
<path d="M85.3486 15.2168V37.979" stroke="#512A59" stroke-width="3" stroke-linecap="round"/>
<path d="M77.0273 5.42659V47.035" stroke="#512A59" stroke-width="3" stroke-linecap="round"/>
<path d="M1.64258 15.4615V38.2238" stroke="#512A59" stroke-width="3" stroke-linecap="round"/>
<path d="M17.7959 15.2168V37.979" stroke="#512A59" stroke-width="3" stroke-linecap="round"/>
<path d="M9.47461 5.42659V47.035" stroke="#512A59" stroke-width="3" stroke-linecap="round"/>
<g filter="url(#filter1_d_53_1473)">
<path d="M41.7822 43.1189C41.7822 44.2003 42.6589 45.0769 43.7403 45.0769C44.8217 45.0769 45.6983 44.2003 45.6983 43.1189C45.6983 42.0375 44.8217 41.1608 43.7403 41.1608C42.6589 41.1608 41.7822 42.0375 41.7822 43.1189Z" fill="#FBE5D8"/>
</g>
<defs>
<filter id="filter0_d_53_1473" x="27.832" y="0.77623" width="32.0626" height="57.5175" filterUnits="userSpaceOnUse" color-interpolation-filters="sRGB">
<feFlood flood-opacity="0" result="BackgroundImageFix"/>
<feColorMatrix in="SourceAlpha" type="matrix" values="0 0 0 0 0 0 0 0 0 0 0 0 0 0 0 0 0 0 127 0" result="hardAlpha"/>
<feOffset dy="1.95804"/>
<feGaussianBlur stdDeviation="0.979021"/>
<feComposite in2="hardAlpha" operator="out"/>
<feColorMatrix type="matrix" values="0 0 0 0 0 0 0 0 0 0 0 0 0 0 0 0 0 0 0.25 0"/>
<feBlend mode="normal" in2="BackgroundImageFix" result="effect1_dropShadow_53_1473"/>
<feBlend mode="normal" in="SourceGraphic" in2="effect1_dropShadow_53_1473" result="shape"/>
</filter>
<filter id="filter1_d_53_1473" x="39.2368" y="41.0629" width="9.00692" height="9.00699" filterUnits="userSpaceOnUse" color-interpolation-filters="sRGB">
<feFlood flood-opacity="0" result="BackgroundImageFix"/>
<feColorMatrix in="SourceAlpha" type="matrix" values="0 0 0 0 0 0 0 0 0 0 0 0 0 0 0 0 0 0 127 0" result="hardAlpha"/>
<feOffset dy="2.44755"/>
<feGaussianBlur stdDeviation="1.27273"/>
<feComposite in2="hardAlpha" operator="out"/>
<feColorMatrix type="matrix" values="0 0 0 0 0 0 0 0 0 0 0 0 0 0 0 0 0 0 0.25 0"/>
<feBlend mode="normal" in2="BackgroundImageFix" result="effect1_dropShadow_53_1473"/>
<feBlend mode="normal" in="SourceGraphic" in2="effect1_dropShadow_53_1473" result="shape"/>
</filter>
</defs>
</svg>
