<svg width="80" height="85" viewBox="0 0 80 85" fill="none" xmlns="http://www.w3.org/2000/svg">
<path d="M69.843 35.6173C82.335 32.5182 81.8341 55.0182 69.9793 53.075L69.843 35.6173Z" fill="#F8CCC8"/>
<path d="M9.78178 35.7852C-2.819 33.1632 -1.46309 55.6279 10.3093 53.2354L9.78178 35.7852Z" fill="#F8CCC8"/>
<g filter="url(#filter0_d_53_1527)">
<path d="M39.237 12.5564C82.7083 10.5252 79.4829 74.5091 39.237 74.5091C1.12806 74.5091 -1.55015 10.5252 39.237 12.5564Z" fill="#F8CCC8"/>
<path d="M39.237 12.5564C82.7083 10.5252 79.4829 74.5091 39.237 74.5091C1.12806 74.5091 -1.55015 10.5252 39.237 12.5564Z" stroke="#F8CCC8" stroke-width="4" stroke-linecap="square"/>
</g>
<path d="M8.88203 35.5362C27.8016 40.788 52.3949 23.6959 52.3949 14.5292C55.0596 21.6907 59.2326 31.6987 71.3405 35.5182C70.8675 -10.3154 6.99017 -9.34248 8.88203 35.5362Z" fill="#512A59" stroke="#522B5A" stroke-width="2"/>
<path d="M45.6426 35.5091V42.5091" stroke="#844D6A" stroke-width="6" stroke-linecap="round"/>
<path d="M28.7734 10.5091L23.6431 15.2714" stroke="#F8CCC8" stroke-width="2" stroke-linecap="round"/>
<path d="M29.6426 13.5091L25.6431 17.2714" stroke="#F8CCC8" stroke-width="2" stroke-linecap="round"/>
<path d="M32.7324 35.5182V42.5182" stroke="#844D6A" stroke-width="6" stroke-linecap="round"/>
<path d="M50.6426 52.0182C50.6322 69.6675 27.6322 69.1598 27.6426 52.0182H50.6426Z" fill="#844D6A" stroke="#844D6A" stroke-width="2" stroke-linecap="round"/>
<defs>
<filter id="filter0_d_53_1527" x="3.64258" y="10.5091" width="73" height="73.9999" filterUnits="userSpaceOnUse" color-interpolation-filters="sRGB">
<feFlood flood-opacity="0" result="BackgroundImageFix"/>
<feColorMatrix in="SourceAlpha" type="matrix" values="0 0 0 0 0 0 0 0 0 0 0 0 0 0 0 0 0 0 127 0" result="hardAlpha"/>
<feOffset dy="4"/>
<feGaussianBlur stdDeviation="2"/>
<feComposite in2="hardAlpha" operator="out"/>
<feColorMatrix type="matrix" values="0 0 0 0 0 0 0 0 0 0 0 0 0 0 0 0 0 0 0.25 0"/>
<feBlend mode="normal" in2="BackgroundImageFix" result="effect1_dropShadow_53_1527"/>
<feBlend mode="normal" in="SourceGraphic" in2="effect1_dropShadow_53_1527" result="shape"/>
</filter>
</defs>
</svg>
