<svg width="162" height="229" viewBox="0 0 162 229" fill="none" xmlns="http://www.w3.org/2000/svg">
<path d="M2.00001 212.282H160V191.282C160 152.622 128.66 121.282 90 121.282H71.9952C33.3379 121.282 1.99999 152.615 2 191.273L2.00001 212.282Z" fill="#EF6867" stroke="#020000" stroke-width="4" stroke-linecap="round"/>
<g filter="url(#filter0_d_83_240)">
<path d="M155.064 144.785V75.9666C155.064 35.2717 121.727 2.28198 81.0322 2.28198C40.3373 2.28198 7 35.2717 7 75.9666V144.785C7 185.48 40.3373 218.47 81.0322 218.47C121.727 218.47 155.064 185.48 155.064 144.785Z" fill="#FFBEC4"/>
<path d="M155.064 144.785V75.9666C155.064 35.2717 121.727 2.28198 81.0322 2.28198C40.3373 2.28198 7 35.2717 7 75.9666V144.785C7 185.48 40.3373 218.47 81.0322 218.47C121.727 218.47 155.064 185.48 155.064 144.785Z" stroke="black" stroke-width="4.17083"/>
</g>
<g filter="url(#filter1_d_83_240)">
<path d="M134.558 195.531C119.509 207.296 46.9075 153.499 31.6777 107.068" stroke="black" stroke-width="3.47569"/>
</g>
<g filter="url(#filter2_d_83_240)">
<path d="M67.1299 158.34C80.6636 160.321 111.821 137.296 121.698 120.803" stroke="black" stroke-width="3.47569"/>
</g>
<g filter="url(#filter3_d_83_240)">
<path d="M60.5254 132.273C66.4341 136.444 79.2941 145.828 91.8066 148.956" stroke="black" stroke-width="3.47569"/>
</g>
<path d="M138.729 79.6162V77.5308C138.729 45.9539 113.131 20.3557 81.554 20.3557C49.9771 20.3557 24.3789 45.9539 24.3789 77.5309V79.6162C24.3789 111.193 49.9771 136.791 81.554 136.791C113.131 136.791 138.729 111.193 138.729 79.6162Z" fill="#FCE5DF" stroke="black" stroke-width="4.17083"/>
<path d="M48.5 33.282C69.5 27.282 101.5 27.282 114.5 33.282C99.5 17.782 64 19.7819 48.5 33.282Z" fill="#EF6867"/>
<path d="M57.4114 81.2394C49.4691 77.2421 36.1952 79.8841 36.1953 89.4516C36.7357 100.53 52.6112 102.366 59.6514 95.6116C63.8724 91.5622 62.6362 83.8691 57.4114 81.2394Z" fill="#FFA1AC"/>
<path d="M123.449 81.2394C115.507 77.2421 102.233 79.8841 102.233 89.4516C102.774 100.53 118.649 102.366 125.69 95.6116C129.91 91.5622 128.674 83.8691 123.449 81.2394Z" fill="#FFA1AC"/>
<g filter="url(#filter4_d_83_240)">
<path d="M72.8154 89.4634C74.8154 95.4634 89.8154 95.4634 92.3154 89.4634" stroke="black" stroke-width="6" stroke-linecap="round"/>
</g>
<g filter="url(#filter5_d_83_240)">
<path d="M54.8486 69.8552V80.3552" stroke="black" stroke-width="7" stroke-linecap="round"/>
<path d="M106.849 69.8552V80.3552" stroke="black" stroke-width="7" stroke-linecap="round"/>
</g>
<defs>
<filter id="filter0_d_83_240" x="0.915039" y="0.196533" width="160.234" height="228.359" filterUnits="userSpaceOnUse" color-interpolation-filters="sRGB">
<feFlood flood-opacity="0" result="BackgroundImageFix"/>
<feColorMatrix in="SourceAlpha" type="matrix" values="0 0 0 0 0 0 0 0 0 0 0 0 0 0 0 0 0 0 127 0" result="hardAlpha"/>
<feOffset dy="4"/>
<feGaussianBlur stdDeviation="2"/>
<feComposite in2="hardAlpha" operator="out"/>
<feColorMatrix type="matrix" values="0 0 0 0 0 0 0 0 0 0 0 0 0 0 0 0 0 0 0.25 0"/>
<feBlend mode="normal" in2="BackgroundImageFix" result="effect1_dropShadow_83_240"/>
<feBlend mode="normal" in="SourceGraphic" in2="effect1_dropShadow_83_240" result="shape"/>
</filter>
<filter id="filter1_d_83_240" x="26.0264" y="100.526" width="113.603" height="100.383" filterUnits="userSpaceOnUse" color-interpolation-filters="sRGB">
<feFlood flood-opacity="0" result="BackgroundImageFix"/>
<feColorMatrix in="SourceAlpha" type="matrix" values="0 0 0 0 0 0 0 0 0 0 0 0 0 0 0 0 0 0 127 0" result="hardAlpha"/>
<feOffset dy="-2"/>
<feGaussianBlur stdDeviation="2"/>
<feComposite in2="hardAlpha" operator="out"/>
<feColorMatrix type="matrix" values="0 0 0 0 0 0 0 0 0 0 0 0 0 0 0 0 0 0 0.25 0"/>
<feBlend mode="normal" in2="BackgroundImageFix" result="effect1_dropShadow_83_240"/>
<feBlend mode="normal" in="SourceGraphic" in2="effect1_dropShadow_83_240" result="shape"/>
</filter>
<filter id="filter2_d_83_240" x="62.8779" y="113.91" width="64.3115" height="48.2876" filterUnits="userSpaceOnUse" color-interpolation-filters="sRGB">
<feFlood flood-opacity="0" result="BackgroundImageFix"/>
<feColorMatrix in="SourceAlpha" type="matrix" values="0 0 0 0 0 0 0 0 0 0 0 0 0 0 0 0 0 0 127 0" result="hardAlpha"/>
<feOffset dy="-2"/>
<feGaussianBlur stdDeviation="2"/>
<feComposite in2="hardAlpha" operator="out"/>
<feColorMatrix type="matrix" values="0 0 0 0 0 0 0 0 0 0 0 0 0 0 0 0 0 0 0.25 0"/>
<feBlend mode="normal" in2="BackgroundImageFix" result="effect1_dropShadow_83_240"/>
<feBlend mode="normal" in="SourceGraphic" in2="effect1_dropShadow_83_240" result="shape"/>
</filter>
<filter id="filter3_d_83_240" x="56.5234" y="124.853" width="40.7051" height="27.7891" filterUnits="userSpaceOnUse" color-interpolation-filters="sRGB">
<feFlood flood-opacity="0" result="BackgroundImageFix"/>
<feColorMatrix in="SourceAlpha" type="matrix" values="0 0 0 0 0 0 0 0 0 0 0 0 0 0 0 0 0 0 127 0" result="hardAlpha"/>
<feOffset dx="1" dy="-2"/>
<feGaussianBlur stdDeviation="2"/>
<feComposite in2="hardAlpha" operator="out"/>
<feColorMatrix type="matrix" values="0 0 0 0 0 0 0 0 0 0 0 0 0 0 0 0 0 0 0.25 0"/>
<feBlend mode="normal" in2="BackgroundImageFix" result="effect1_dropShadow_83_240"/>
<feBlend mode="normal" in="SourceGraphic" in2="effect1_dropShadow_83_240" result="shape"/>
</filter>
<filter id="filter4_d_83_240" x="65.8145" y="86.4626" width="33.502" height="18.5007" filterUnits="userSpaceOnUse" color-interpolation-filters="sRGB">
<feFlood flood-opacity="0" result="BackgroundImageFix"/>
<feColorMatrix in="SourceAlpha" type="matrix" values="0 0 0 0 0 0 0 0 0 0 0 0 0 0 0 0 0 0 127 0" result="hardAlpha"/>
<feOffset dy="4"/>
<feGaussianBlur stdDeviation="2"/>
<feComposite in2="hardAlpha" operator="out"/>
<feColorMatrix type="matrix" values="0 0 0 0 0 0 0 0 0 0 0 0 0 0 0 0 0 0 0.25 0"/>
<feBlend mode="normal" in2="BackgroundImageFix" result="effect1_dropShadow_83_240"/>
<feBlend mode="normal" in="SourceGraphic" in2="effect1_dropShadow_83_240" result="shape"/>
</filter>
<filter id="filter5_d_83_240" x="47.3486" y="66.3552" width="67" height="25.5" filterUnits="userSpaceOnUse" color-interpolation-filters="sRGB">
<feFlood flood-opacity="0" result="BackgroundImageFix"/>
<feColorMatrix in="SourceAlpha" type="matrix" values="0 0 0 0 0 0 0 0 0 0 0 0 0 0 0 0 0 0 127 0" result="hardAlpha"/>
<feOffset dy="4"/>
<feGaussianBlur stdDeviation="2"/>
<feComposite in2="hardAlpha" operator="out"/>
<feColorMatrix type="matrix" values="0 0 0 0 0 0 0 0 0 0 0 0 0 0 0 0 0 0 0.25 0"/>
<feBlend mode="normal" in2="BackgroundImageFix" result="effect1_dropShadow_83_240"/>
<feBlend mode="normal" in="SourceGraphic" in2="effect1_dropShadow_83_240" result="shape"/>
</filter>
</defs>
</svg>
